<svg id="Capa_1" data-name="Capa 1" xmlns="http://www.w3.org/2000/svg" viewBox="0 0 1167.32 1080.24"><defs><style>.cls-1,.cls-3{fill:#f19728;}.cls-2{fill:none;}.cls-2,.cls-3{stroke:#f19728;stroke-miterlimit:10;stroke-width:4px;}.cls-4{fill:#bac8c5;}</style></defs><path class="cls-1" d="M238.13,211.94a89,89,0,0,1,4.12-8.29,11.77,11.77,0,0,1,13.44-5.14c5.73,1.57,7.95,6.11,5.49,11.53a31.83,31.83,0,0,1-3.15,5.29,32.25,32.25,0,0,0-5.22,11.93c-.64,2.87-1.23,5.76-1.74,8.66a108.69,108.69,0,0,1-6.66,23.64c-4.94,11.72-5.35,23.82-4.16,36.18,1.49,15.54,6.29,30.13,11.79,44.56,1.36,3.55,2.47,7.22,3.49,10.9,1.36,4.9,1.58,9.81-1.24,14.74l9.42,11.81c-1.47,1.78-2,1.84-3.46.1a53.88,53.88,0,0,0-3.91-4.54c.14,3.12,3.52,5.08,2.68,8.63-3.29,1-1.75-3.74-4.74-3.46.24,2,.48,4.16.72,6.22-1.94.8-2.33-.14-2.57-1.43a53.63,53.63,0,0,0-2.17-8.53,42.68,42.68,0,0,1,0,4.38c-.12,1.28,1.08,3.11-1.53,3.8-.52-1.3-1-2.51-1.49-3.77-2.58.73-1.62,2.78-1.81,4.19s-.35,2.52-2.39,2c-.26-3.89-.44-7.79-.83-11.65a6.82,6.82,0,0,0-1.3-3.75c-2.52-2.67-3.41-5.91-3.83-9.36-.39-3.17-.49-6.37-.87-9.53-2.67-22.27-7.37-44.05-16.48-64.57-8.44-19.05-22-34.11-38.77-46.33-1.7-1.24-3.12-2.48-3.15-4.86,1.38-1.89,2.76-3.92,4.28-5.84,4.2-5.31,8.69-6.6,15-4.4.61.21,1.2.46,1.41.54,2.12-1.22,3.91-2.94,5.84-3.15s4,1.09,6.48,1.87c.74-1.36,1.65-3,2.56-4.66s1.85-3.34,2.75-5c4-.22,5.76,3.62,9.31,4.28a13.27,13.27,0,0,0,.61-7.7,3.68,3.68,0,0,1,.74-2.93c.77-.75,1.75-.39,2.95.31C232.35,210.14,235.35,210.9,238.13,211.94ZM181,236.16l3.37,2.55c16.44,12.44,29.59,27.57,38.26,46.36a173.39,173.39,0,0,1,10.74,32.6c2.78,11.65,5.38,23.34,6.14,35.38A55,55,0,0,0,241.06,364c1.29,4.73,4.52,5.46,8.44,2.33A10,10,0,0,0,253.23,356a100,100,0,0,0-4.13-14.66c-5.53-14.7-10.43-29.52-11.93-45.31-1.23-12.88-.58-25.42,4.34-37.72,2.42-6,4-12.44,5.64-18.75,1-3.82,1.57-7.77,2.35-11.66a36.88,36.88,0,0,1,6.31-14.77,23.08,23.08,0,0,0,2.7-4.66c1.42-3.36.26-5.66-3.22-6.84a8.63,8.63,0,0,0-11,4.62,53.29,53.29,0,0,0-3.73,11.65c-1.36,6.38-2.07,12.89-3.43,19.27a108.74,108.74,0,0,1-4.2,15.16c-2.55,6.86-6.25,7.58-11.43,2.38-2.87-2.88-5.27-6.2-7.88-9.33-3.51-4.19-6.82-8.57-10.61-12.49a24.57,24.57,0,0,0-7.53-5.08c-3.87-1.74-7.25-.7-10.08,2.53C183.86,232.08,182.57,234,181,236.16Zm48.76-23.71c-1.25,13.52-3.23,26.35-7.19,38.87,1.5,1.67,2.83,3.35,5.15,3.62,4.07-5,10-29.44,9.68-40.09Zm-6.89,26c-5.25-4.08-10.39-8.2-15.68-12.12-2.46-1.81-3.22-1.44-4.58,1l17.74,21.06C221.2,244.91,222,241.85,222.83,238.49Zm-5.12-20.23-4.6,8.45,10.37,8.39c.75-4.62,1.4-8.58,2-12.26Z"/><path class="cls-1" d="M650.78,294.61c3.46.86,9.39,1.91,15,3.83,12.69,4.32,25.46,8.53,37.8,13.75,20.65,8.73,42.15,14,64,18.13,8.3,1.59,16.56,3.44,24.77,5.49a31.64,31.64,0,0,1,8.71,3.74c3.86,2.36,4.26,4.72,1.72,8.49a61.18,61.18,0,0,1-17.94,18.1,35.48,35.48,0,0,1-7.68,3.48c-4.56,1.53-8.69.35-12.26-2.87-1.19-1.07-2.26-2.27-3.41-3.39-5.08-4.92-8.48-5.62-14.79-2.41a30.52,30.52,0,0,1-18.47,3c-6.71-.92-12.67-3.43-16.93-9-5.55-7.21-12.61-10-21.42-8.66-6.15.95-11.94-.53-17.37-3.38-16.28-8.5-27.29-21.32-31-40C640.21,296,641.54,294.35,650.78,294.61Zm146.44,54.2c-56,4.39-105.42-10.3-150.4-43.58a40.51,40.51,0,0,0,.92,4.33c4.78,13.63,14.12,23,26.51,29.46,4.8,2.51,9.87,3.84,15.3,3,10.1-1.5,18.39,1.62,24.76,9.91a20.08,20.08,0,0,0,12.53,7.42,27.75,27.75,0,0,0,18.48-2.49c7.49-3.8,12.68-2.8,18.78,3,1.29,1.23,2.51,2.54,3.82,3.74a8,8,0,0,0,8.36,1.82C784.84,362.66,790.66,356.38,797.22,348.81Zm-87.74-26.62c-2.28.83-4.79,1.28-6.78,2.56a3.78,3.78,0,0,0,.52,6.84c6.11,2.29,12.3,4.42,18.58,6.12,3.36.91,5.87-2.41,4.54-5.73a12.51,12.51,0,0,0-3.48-4.62C719.07,324.15,714.58,322.69,709.48,322.19Zm-43.19-9a131.92,131.92,0,0,0,19.77,11c2.15,1,4.72-1.07,4.53-3.6a8.71,8.71,0,0,0-1.89-4.81A16.84,16.84,0,0,0,672.52,310C670.63,310.3,668.93,311.77,666.29,313.15Zm94,31.24c-3.9-8.56-17.49-12.51-24.13-7.39-1,.76-1.55,2.1-2.64,3.65C742.82,342.64,751.33,344.2,760.33,344.39ZM662.43,311l9-6.36c-8.08-2.44-15.58-5.42-23.65-5.72-.16.37-.31.75-.47,1.13Zm113.24,25.3-19.3-3.8c3.72,3.31,7.08,6.31,8.84,10.94.79,2.09,2.25,2.12,3.61.58C771,341.59,773.16,339.15,775.67,336.33Zm-69.89-18.8-12.47-4.67c2.61,5.2,2.29,9.71-.88,14.37l4,1.25C696.79,322.32,700.92,320.08,705.78,317.53Zm84.7,27.29c-5.23-5.66-12.71-5.26-16.36,0Zm-47.56-15.29-14.18-3.39c1.14,3.31,2,5.89,2.77,8.09Zm55.64,14.68.3-.93-3.72-1.78c.9,1.52,1.1,2.25,1.55,2.51A4.71,4.71,0,0,0,798.56,344.21Z"/><path class="cls-1" d="M480.93,303.72a31.9,31.9,0,0,0-5.35,1.5c-5.07,2.34-9-.13-11.33-4.7a15.13,15.13,0,0,1-1.41-4.61c-.82-6,1.21-8.91,8.2-11.65,0-1.5,0-3.23,0-4.95,0-8.17,5.82-11.85,12.73-7.89,2.73,1.56,5.27,3.5,8.73,4.82A32.66,32.66,0,0,1,491,271c-.29-2.43-.77-5.13,0-7.32,1.81-5.46,5.54-6.13,10-1.92,1.49-1.7,1.28-3.94,2-5.82.84-2.33,1.57-4.9,3.08-6.73a7.16,7.16,0,0,1,11.16,0c2.34,2.91,4.56,3.27,7.82,2.11a12.17,12.17,0,0,1,6.2-.35c4.77.93,7.44,4.82,7.2,9.82,0,.72-.2,1.43-.27,2.15-.82,7.92,1,10.61,8.7,10.41,8.87-.23,13.93,3.83,14.77,15a14.46,14.46,0,0,1-.25,4.83c-1.45,5.46-1.28,10.54,1.89,15.49.78,1.22.62,3.58.06,5.09-2.63,7.1-11.5,10.1-16.44,5.74a19.17,19.17,0,0,0-2-1.35c-7.31,5.52-13.68,11.77-17.71,20.3a33.71,33.71,0,0,1-4.81,7.67c-3,3.48-8,4.65-11.56,2.66-1.86-1.05-4-2.95-4.52-4.9-2.5-8.7-7.78-15.72-12.62-23C489.75,315.05,485.36,309.65,480.93,303.72Zm36.18-2c1.23-2,2.23-3.67,3.17-5.32s2.06-3.58,4.38-3.24c2.64.39,3,2.68,3.32,4.87,0,.36,0,.72.1,1.08.89,7.08,5.07,9.27,11.49,6,5-2.55,7.31-1.07,7,4.7-.13,2.21-.29,4.29,1.32,6.08,2.29,2.58,6,2.91,9.11.75,3.51-2.4,4.48-5.14,2.57-8.57a18.06,18.06,0,0,1-1.84-12.94,32.48,32.48,0,0,0-.2-11.71c-.88-4.69-3.52-6.38-8.3-6.76a49.64,49.64,0,0,1-7.33-.78c-4.78-1.11-7.12-4.24-7.16-9.27,0-2,.32-3.95.49-5.92.24-2.8-.7-5.29-3.31-6.1a12,12,0,0,0-6.6-.06c-3.95,1.13-7.06.87-9.93-2.57s-6.78-2.67-8.54,1.77a40.78,40.78,0,0,0-1.47,5.73c-1.58,6.82-3.62,7.53-8.7,3.05-.21-.18-.64-.09-1-.13-2.57,3.32-2.78,4-1.88,7.22a50.37,50.37,0,0,1,1.77,5.64c.62,3.84-2,5.81-5.52,4.19a29.34,29.34,0,0,1-3.54-2.35,49.06,49.06,0,0,0-5.35-3.44c-3.24-1.58-6-.16-6.78,3.39a13.3,13.3,0,0,0-.09,3.22c.13,5.91-.05,6-5.24,8.43-1.23.57-2.81,2.14-2.83,3.28a18.72,18.72,0,0,0,1.37,7.72c1.39,3.11,3.39,3.8,6.54,2.44a15.7,15.7,0,0,1,12.79,0c3.63,1.46,4.24,1.06,6.59-2.25.51-.73.94-1.52,1.47-2.24,3.1-4.17,7-5.24,11.62-2.92a51.79,51.79,0,0,1,5.26,3.57C513.46,299.4,515.06,300.42,517.11,301.77Zm-29.75,5.05c2.78,3.76,5.67,7.34,8.2,11.18,5.09,7.74,10.76,15.14,13.48,24.32,1.21,4.12,5.94,5.44,9.52,2.59a18.5,18.5,0,0,0,5.08-6.7,48.59,48.59,0,0,1,15.48-19.53c4.15-3.06,4.72-6.58,3.92-11.71-3.49,2-6.61,4-9.81,5.76a83.63,83.63,0,0,1-10.29,5.43c-4.3,1.67-6.8-.93-5.8-5.55.52-2.39,1-4.79,1.48-7.16l-7.88-3c-1.12,4.11-.47,7.8.35,11.51.49,2.19.48,4.51-1.78,5.73-2.55,1.37-4.4-.24-5.89-2.15-1.77-2.24-3.38-4.61-5-6.95C495.72,306.75,492.48,304.62,487.36,306.82Zm20.13-7.38c-5.7-4.35-8.37-3.53-11.5,3.4l11.5,14.26Zm24.4,10.21c-5.85-2.42-7-7-7.85-12.2-1.31,1.6-2.59,3.2-2.78,4.93-.45,4.16-.39,8.37-.55,12.86C524.77,314.84,527.88,312.25,531.89,309.65Z"/><path class="cls-1" d="M367.25,238.69l-2.78-2.8,3.59-4.5C377.15,220,380,207.5,374,193.62c-5.26-12.1-4.93-24.19.19-36.14a79.22,79.22,0,0,1,6.66-12.25A63.86,63.86,0,0,1,406.21,123a35.93,35.93,0,0,1,8.41-3.06c6.26-1.33,7.95.6,6.32,6.77a35,35,0,0,1-1.34,4.1,37.17,37.17,0,0,0-1.58,22.8c4,16.47-1.7,29.48-14,39.72-5.83,4.86-12.41,8.82-18.84,12.87-2.42,1.53-3.81,2.89-4.15,6.07C380,222.5,374.79,230.72,367.25,238.69ZM387,186.9l1.09.82c1.51-.83,3.1-1.54,4.52-2.51,2.48-1.7,4.79-3.67,7.31-5.29.78-.49,2-.22,3.45-.33-3,5.65-9.21,9.83-18.13,12.5l-3.08,9.74,1,.66C394.64,196,405.72,189,412.18,176.4a27.27,27.27,0,0,0,2.54-16.82c-.29-2-.61-3.91-1-5.85a41.87,41.87,0,0,1,1.75-23.91c.65-1.72,1.05-3.54,1.84-6.27a59.74,59.74,0,0,0-7.05,2.23c-16.48,7.82-28,20.32-33.88,38-3.71,11.21-2,21.86,3.9,33.17.83-2.89,1.05-5.08,2-6.81,2.77-4.87,1.75-9.68.37-14.56a11,11,0,0,1-.74-2.59c0-1.09,0-2.9.52-3.16,1.79-.85,2.27.88,2.82,2.19.45,1.08,1,2.15,1.73,3.93,1.05-4,3.19-7,1.7-10.58-1.32-3.16-2.92-6.2-4.5-9.5,4.7-1.62,4.84,3.34,7.47,5,1.09-3.19,2.07-6.06,3-8.93.64-1.89,1.65-2.17,3.35-.53-1.78,5.79-3.61,11.72-5.44,17.66a15.1,15.1,0,0,0,6.17-4.24c2-2.22,4.32-2.35,6.76-1.74.75.19,1.22,1.51,1.93,2.47-2.48.73-4.5.87-6,1.85-3.64,2.47-7,5.3-10.52,8a2.84,2.84,0,0,0-.89,1.29C389,180.14,388,183.52,387,186.9Z"/><path class="cls-1" d="M1061.41,579.26c.33-1.68.21-3.45,2.73-3.72.9-.1,2.11-2.12,2.32-3.41,1.28-7.92.08-15.39-5.37-21.34a33.43,33.43,0,0,0-8.84-6.9,51.35,51.35,0,0,0-31.55-5.69c-6.28.87-12.59,1.64-18.91,2.06a34.11,34.11,0,0,1-20.8-5.61,17.16,17.16,0,0,0-1.76-.9c-.06,0-.2.12-.54.35.36.79.74,1.61,1.11,2.44,1.38,3,2.82,6,4.11,9A53.7,53.7,0,0,1,986,582.23c-2.14,7.44-4.88,14.7-7,22.16a160.07,160.07,0,0,0-4.55,19.81c-1.11,7.51,1.57,11,8.65,13a24.56,24.56,0,0,0,19.54-2.68c7.75-4.58,11.9-14.39,10.48-24.33a33.07,33.07,0,0,0-6.55-15.87c-.57-.75-1.11-1.53-1.75-2.41l1.84-2a17.39,17.39,0,0,1,2,1.94c6,7.84,8.94,16.69,7.39,26.79-2,13.12-11.18,21.75-23.82,22.7a25.56,25.56,0,0,1-13.56-2.2c-5.62-2.77-8.16-6.74-7.62-13.24a73.94,73.94,0,0,1,2.34-13.49c2.08-7.61,4.78-15,7-22.61A146.81,146.81,0,0,0,984.72,572a44.24,44.24,0,0,0-4.34-26.32c-4.07-8.4-8.77-16.47-13.27-24.64-1.45-2.64-3.15-5.12-4.71-7.62,2.31-2.43,2.47-2.47,3.89-.36.92,1.36,1.7,2.82,2.55,4.23,9.19,15.1,22.22,21.6,39.15,19.35,4.46-.59,8.9-1.34,13.36-1.85a53.36,53.36,0,0,1,35.74,8.18c9.77,6.24,13.81,15.69,12.87,27.59,0,.14,0,.28,0,.41-.74,6.29-2.81,8.28-8.56,8.2Z"/><path class="cls-1" d="M1017.64,624.86c-1.51-2-1.18-2.93.64-3.83a111.64,111.64,0,0,0,10.12-5.67,30,30,0,0,0,4.95-4.16c3.75-3.68,4.31-6.53,2.39-11.6s-5.15-8.7-8.92-12.06c-1.81-1.61-3.74-3.07-5.86-4.8l1.2-2.18c.49,0,.8-.11,1,0a40.85,40.85,0,0,1,11.49,10.75,37.37,37.37,0,0,1,4.51,8.72,11.67,11.67,0,0,1-2.9,12.93A52.32,52.32,0,0,1,1017.64,624.86Z"/><path class="cls-1" d="M1061.35,579.15a5.6,5.6,0,0,0-.25,1.59c1.29,9.15-5.74,17.56-15.34,19.59-1.28.27-2.61.32-3.94.47a4.28,4.28,0,0,1-.61-1.14,10,10,0,0,1,.06-1.84c.94-.21,1.81-.41,2.68-.59.39-.08.8-.09,1.18-.18,6-1.47,10.79-4.7,12.55-11.31,1.48-5.53-1.36-12.45-6.73-16.21a27.62,27.62,0,0,0-7.56-3.37c-1.81-.58-2.52-1.23-1.65-3.3,2.43-.54,4.63.42,6.8,1.37a21.12,21.12,0,0,1,11.28,11.69c.47,1.13,1,2.22,1.58,3.33Z"/><path class="cls-1" d="M1028.78,599.14c1,3.26,2.62,5.81,1.85,9A6.15,6.15,0,0,1,1028.78,599.14Z"/><path class="cls-1" d="M1001.78,615.34c1,.16,2.29.06,2.44.46.94,2.48,2.08,5,.94,7.92C1003.35,622.52,1003.35,622.52,1001.78,615.34Z"/><path class="cls-1" d="M996.82,600.7c3.11.51,4.88,3.92,4.16,7.28C997.83,606.56,997.79,603.36,996.82,600.7Z"/><path class="cls-1" d="M1050.15,588.73c-.23-2-.55-4.14-.64-6.27,0-.32,1.31-1.13,1.62-1,1.7,1,1.41,6.23-.33,7.39C1050.73,589,1050.56,588.84,1050.15,588.73Z"/><path class="cls-1" d="M1064.43,563.67c-2.47-.83-2.41-3.18-3.17-5.11C1064.31,558,1065.39,559.83,1064.43,563.67Z"/><path class="cls-1" d="M939.75,333.3c5.33-1.94,9.72-3.71,14.21-5.11,3.39-1.06,6.21.34,8.38,3.13.66.84,1.3,1.7,2,2.53,2.26,2.76,5,4.06,8.42,2.5,6.33-2.91,10.84,0,14.88,4.59,3.72,4.22,6,9.28,7.8,14.59l1.11,3.27,2.59-.13c4.41-.26,6.75.87,8.28,5,3.28,8.9,6.87,17.76,9.18,26.94,4.51,17.84-7,36.48-24.79,39.26-20.18,3.15-37.82,12-55,22.38l-2.36,1.46c-3.08-2.45-6.25-5-9.47-7.55a70.47,70.47,0,0,0-21.32-11.65c-6.7-2.2-13.36-4.53-20-6.87-6-2.11-10.46-5.77-12.17-12.37a16.26,16.26,0,0,0-7.55-10c-8.34-5.05-10.63-14-13.79-22.32-1-2.55.19-4.39,2.93-4.49,5.82-.2,7.83-3.52,8.58-8.86.6-4.25,1.77-8.43,5.12-11.6.95-.9,1.25-2.52,1.85-3.82,4.91-10.73,12.21-17.93,24.67-17.87,1.32,0,2.83-1.1,4-2.06,4.71-4.07,7-4.48,12.32-1.1,3.12,2,5.93,4.5,8.85,6.81,4.39,3.46,6.06,3.12,8.45-1.8C930.13,331.33,933.7,330.13,939.75,333.3Zm20.34,16c-2.28,0-4.54-.15-6.77,0-6,.48-10.12-2.28-13-7.43-.52-.94-1.06-1.88-1.65-2.77-2.79-4.26-5.46-4.17-7.73.26-.49,1-.84,2-1.38,2.92-2.57,4.39-6.39,5.53-10.82,3.09a33.93,33.93,0,0,1-4.27-3.17c-2.25-1.73-4.39-3.63-6.75-5.19-3.9-2.59-6.19-2-8.8,1.91-1.7,2.56-2.27,5.24-.86,8.15.7,1.45,1.35,2.94,2.09,4.37,3.07,5.91,3.77,12,1,18.18a11.3,11.3,0,0,0,.29,9.91c1.54,3.24,3.24,6.39,4.82,9.61,3.92,7.93,3.48,11.69-2.64,17.82-2.25,2.26-2.73,4.48-1.55,7.25a40.16,40.16,0,0,0,2.48,5.36c6.61,10.67,16.14,17.82,27.21,23.69a256.57,256.57,0,0,0,19.77-25.58c5.44-8.27,7.4-17,3.47-26.6-2.49-6.08-2-12.35,0-18.52,1.24-3.75,2.67-7.44,3.81-11.23S961.11,353.82,960.09,349.3Zm16.74,61.08c2.31-2.73,4.22-5.28,6.43-7.5,2-2.07,3-5.59,7.79-6-3.15,7.07-8.72,11.55-11.59,18,5.07.61,9-4.41,14.28-2.46-.7,2.58-2.72,2.72-4.21,3.26-4.79,1.73-9.69,3.16-14.5,4.86a8.94,8.94,0,0,0-3.95,2.36c-2.33,2.91-4.3,6.11-6.42,9.2,9.23-3.45,18.65-4.74,27.9-6.83,14.32-3.24,23.59-18.57,20-33.16-2.24-9-5.73-17.72-8.87-26.49-1.11-3.11-3.19-3.49-5.87-1.51-1.27.95-2.32,2.21-3.55,3.23-3.49,2.87-5.35,2.7-7.84-1-1.6-2.36-2.85-5-4.28-7.45-3.77-6.53-7.62-7.89-14.65-5.5a4.64,4.64,0,0,0-3.3,3.71A113.83,113.83,0,0,1,960.3,370c-3,7.53-3.53,14.92-.49,22.58,2.66,6.72,2.08,13.54-.87,20a69.75,69.75,0,0,1-7,12c-5.08,6.92-10.57,13.51-15.87,20.26-.68.87-1.21,1.87-2.47,3.84,7.13-3.87,13.07-7.25,19.15-10.34a16.64,16.64,0,0,0,7.27-6.73,107.44,107.44,0,0,1,7.56-11.57c5.09-6.66,7-14.39,7.67-22.52.42-5,.28-10.08.39-15.12,0-1.85.24-3.58,2.57-3.8C980.3,383.32,980.11,387.67,976.83,410.38ZM876.3,387.56c3.41-1.33,4.52,1.35,5.42,3.45a55.55,55.55,0,0,1,3.51,10.67c.48,2.39,2.17,5,0,7.88l-5.33-1.83c2.51,4.81,6.77,6.74,10.15,9.57,7.44,6.22,7.72,6.27,11.51,5.91-.61-1.17-1.2-2.26-1.75-3.38-4-8.1-3.69-10.49,2.27-17.14,2.4-2.67,3.16-5.55,1.6-8.89-1.13-2.43-2.29-4.86-3.57-7.22-3.06-5.58-5.46-11.27-3.38-18.21-9.82-.51-19.44-.18-27.75-6.1-2.71,3.1-2.93,6.77-3.61,10.23-1,5-3.28,8.7-8.56,9.72a10.57,10.57,0,0,0-1.94.77c2.52,9.82,7.28,17.59,16.08,21.83l2.47-4.76c-.39-1.18-.88-2.64-1.49-4.49,5.34-.73,5.17,5.74,9.69,6.31ZM990.1,364.4l1.56-.1c.28-1.09,1-2.27.79-3.24-1.54-6.74-4-13.07-8.84-18.15-2.62-2.76-5.41-4.19-9.4-2.5-5.46,2.31-10,.32-13.52-4.27-.54-.71-1-1.65-1.68-2.06-1.3-.74-2.84-1.79-4.16-1.63-4.38.53-8.46,2-11.57,5.41,2,6,6.24,7.78,11.74,7.08,4.25-.54,8-.09,10.11,4.28a14.05,14.05,0,0,0,1.83-.13c10.85-2.22,14.3-.58,19.78,9.38C987.83,360.47,989,362.43,990.1,364.4Zm-118.24-6.09c5.78,5,17.91,7.05,26.6,4.4,1.12-8.12-7-13.64-5.44-21.67C882.76,340.69,875.19,347.07,871.86,358.31Zm26.66,70.13L874,409.07c1.49,5.25,2.47,10.72,8,13.1C887.17,424.45,892.62,426.24,898.52,428.44Z"/><path class="cls-1" d="M931.59,429.13c5.51-6.39,10.59-12.92,10.34-22.06-.07-2.67,1-5.37,1.55-8.05l1.22-.16c.61.9,1.87,1.94,1.73,2.7-1.15,6.11-.09,12.73-3.5,18.33-3.15,5.16-6.49,10.21-9.92,15.19-.68,1-2.09,1.46-3.89,2.65-.63-3.34-.89-5.82-1.58-8.17q-3.35-11.31-6.95-22.53-4.41-13.81-9-27.57c-.65-2-.76-3.48,2.33-4.19,5.05,15,10.07,30,15.33,45.62,6.43-14.8,2.36-30,5-44.29,2.32-.12,2.9,1.17,2.9,2.66,0,7.9,0,15.81-.26,23.72a65.31,65.31,0,0,1-4.64,22.53A16.31,16.31,0,0,0,931.59,429.13Z"/><path class="cls-1" d="M522.45,788.64l2.82.32c0,8.18-2.7,15.29-6.35,22.6,3.87.72,7.33,1.22,10.71,2a91.23,91.23,0,0,1,10.62,3.17c26.82,10.2,33.22,34.78,30.39,54.81a44.48,44.48,0,0,1-7.25,19.51c-4.43,6.4-10.27,10.08-18.14,10.45-8.7.4-17.21-.06-25.53-3-8-2.81-15.9-2.28-23.75.88-3.92,1.58-7.92,3.32-12,3.92-20.45,3-38.91-14.93-37.28-36,1.44-18.6,9.68-33.24,25-43.49A70.24,70.24,0,0,1,509,811.79c3.76-.13,6-1.34,7.25-4.72C518.31,801.19,520.23,795.26,522.45,788.64Zm-48.06,38.64c-14.27,9.47-21.81,22.65-23.45,39.48-1.19,12.3,4.28,22.87,15,28.68,8.44,4.6,17.1,5.3,25.89,1.1A38.94,38.94,0,0,1,523.11,895c6.42,2.35,13.11,2.27,19.83,2.34,9.24.09,15.2-4.62,19.3-12.59,12.84-25,1.12-55.38-24.91-64.58-1.17-.42-2.4-.62-3.6-.92a13.24,13.24,0,0,0,3,3.34c4.62,4.35,3.63,9.54-2.26,11.64-5.29,1.89-10.41,1.14-15.34-1.42-1.17-.61-2.33-1.24-3.81-2-.17,2.14-.19,3.77-.46,5.35-.49,3-1,6-1.75,9a4.71,4.71,0,0,1-4.62,3.76,4.58,4.58,0,0,1-4.63-3c-1.37-3.3-2.48-6.72-3.58-10.13-.75-2.34-1.28-4.76-1.89-7.07C480.15,830.64,479,830.57,474.39,827.28Zm61.08,1.4c-2.9-4.8-11.87-10-19.45-11.59-.28,4.87.36,9.51,5.28,11.94C525.87,831.29,530.53,832.06,535.47,828.68Zm-55.46-4c12,2.23,23.73-1.54,28.17-8.64C498.06,816.9,488.58,819.23,480,824.68Zm31.22-3.8-8.79,5.77c1.75,5.93,2.2,12.17,6.16,17.43C510.89,836.78,511.46,829.4,511.23,820.88Z"/><path class="cls-1" d="M541.41,857.57c5.22-1,5.51-.72,5.43,4.26,0,2,.34,3.94.22,5.9-.31,4.95-3.26,8.28-6.36,11.46l-1.3-.55c1-3.4,2.53-6.74,2.87-10.21S541.77,861.45,541.41,857.57Z"/><path class="cls-1" d="M626.29,166.83c-9.46-1.32-11.11-1.91-16.17-5.73a5.46,5.46,0,0,1,.48-1.39,14.13,14.13,0,0,1,1.36-1.54c2.74,1.13,5.26,2.43,7.93,3.23,6.61,2,10.83-.17,13.55-6.65,1-2.32,1.73-4.73,2.75-7,2.8-6.34,7.31-9,14-7.63a66,66,0,0,1,11.61,3.58c12.48,5,24.75,10.48,37.91,13.5,8.15,1.86,16.22,3,24.59,1.78,9.78-1.46,19.68-2.59,29.38.21a82.06,82.06,0,0,1,15.65,6.29c6.53,3.48,9.69,9.79,11,17a51.21,51.21,0,0,1-3.88,30.61,84.57,84.57,0,0,1-8.89,14.61,34.29,34.29,0,0,1-7.78,7.22c-6.14,4.43-12.76,5.47-20,2.71A81,81,0,0,1,717,224.13a43.27,43.27,0,0,0-26.27-10c-3.69-.17-7.39-.3-11.08-.47A67.17,67.17,0,0,1,643,201.29,71.44,71.44,0,0,1,631.07,190a22.11,22.11,0,0,1-5.24-19.1c.13-.71.29-1.41.38-2.13C626.28,168.21,626.26,167.68,626.29,166.83Zm50.38-11.55c.06-.26.13-.53.2-.79-5.88-2.43-11.72-5-17.66-7.24a60.79,60.79,0,0,0-10.13-2.94c-3.27-.63-6.54,0-8.15,3.46-2.86,6.13-5.86,12.12-9.18,18-3.57,6.36-3,13.85,1.7,20.39a52.25,52.25,0,0,0,21.4,17,68.3,68.3,0,0,0,29.77,6.22,55.67,55.67,0,0,1,38.06,13.43c4.82,4,10.78,6.67,16.35,9.7,7.93,4.31,15,2.09,21.4-3.54a48,48,0,0,0,12.15-17.45,49.58,49.58,0,0,0,3.74-27.44c-1-6.28-3.37-12-9.17-15a78.54,78.54,0,0,0-14.67-5.83c-8.65-2.45-17.45-1.16-26.23-.37-5.92.54-12.07,1.27-17.82.21C697.73,161.18,687.24,158,676.67,155.28Z"/><path class="cls-1" d="M720,177.23c-8.55,2.31-15.24-1.22-23-3.95,1.41-.66,2.2-1.37,2.66-1.19,6.09,2.31,12.42,3.25,18.82,3.87C718.78,176,719,176.38,720,177.23Z"/><path class="cls-1" d="M110.84,493.34l14.36,9.43c-2.06-7.14-7.31-11.75-10.72-17.95.84.58,1.71,1.12,2.53,1.73,2.56,1.9,4.95,4.11,7.69,5.68,5.69,3.27,9,1.76,10.5-4.63a44.57,44.57,0,0,0,.91-7.48c.15-2.33,0-4.66,1-7.15.69,3.43,1.48,6.85,2,10.3.89,5.51,1.71,11,2.4,16.57a9.58,9.58,0,0,0,3.8,6.76c9.15,7.24,19,11.35,30.92,9.25,24.52-4.34,48.75,21.84,43.89,47.64-3,15.72-9.81,29.34-22.34,39.31-20.26,16.12-47.28,10.92-62.45-1.34-6.62-5.35-9-12.56-9.86-20.73a121.23,121.23,0,0,1,1.42-32.84c3.37-20.17-1-37.92-15.36-52.65a16,16,0,0,1-1.14-1.44Zm18.87,22.56a9.84,9.84,0,0,0,.14,1.81c2.92,10.25,2.89,20.61,1.21,31s-2.5,21.08-1.3,31.75c.76,6.82,2.54,13,8.12,17.5,15,12.18,43,16.85,61.85-2.62,8-8.27,12.84-18.36,15.74-29.53,6.49-25-17-51-40.81-45.52-3.16.72-6.66.33-9.95-.05-7.35-.86-13.86-4.06-19.67-8.6-2.51-2-4.71-2-7.26-.46S132.62,514.22,129.71,515.9Zm-1.43-3.28,9.78-8.36c-.55-3.05-1-5.59-1.49-8.32l-6.69,2.85c1.25,5.72,1.15,6-3.84,9.07C126.63,509.12,127.23,510.4,128.28,512.62Z"/><path class="cls-1" d="M181.16,586.05a10.86,10.86,0,0,1-2.82-.43c-7.06-3.1-12.66-8.31-17.91-13.81a151.21,151.21,0,0,1-12.24-14.59,48.41,48.41,0,0,1-9-23.86c2.92-.61,3.87,1,4.2,3,1.84,11.53,8.32,20.34,15.91,28.49,3.25,3.5,6.56,7,10.06,10.18,2.17,2,4.79,3.46,7.1,5.3,1.85,1.46,3.54,3.14,5.29,4.73Z"/><path class="cls-1" d="M151.94,537.29c4.23-1.26,5.1-1,7,2.21,3.27,5.5,6.37,11.11,9.8,16.51,2.75,4.34,5.88,8.44,8.87,12.63a17.81,17.81,0,0,1,2,2.49A9.59,9.59,0,0,1,180,574c-.95-.08-2.24.22-2.77-.3a42.12,42.12,0,0,1-6.36-7.07c-4.88-7.64-9.39-15.54-14.17-23.25A67.56,67.56,0,0,0,151.94,537.29Z"/><path class="cls-1" d="M180.17,538c1.12.84,2.71,1.42,3.3,2.55,4.72,9,10,17.69,12.37,27.77.91,4,1.89,8,.31,12.94-1.12-.93-2.53-1.54-2.55-2.19-.27-14.53-8.2-26.09-14-38.46a5.91,5.91,0,0,1-.25-1.55Z"/><path class="cls-1" d="M208.38,566.92c0,2.14.12,4.29-.07,6.41a2.28,2.28,0,0,1-1.57,1.6c-.54,0-1.44-.85-1.63-1.5a9.52,9.52,0,0,1-.34-3.75c.72-6-1.17-11.47-3.33-16.75-1.24-3-3.73-5.54-5.77-8.2-.63-.82-1.78-1.23-2.43-2a6.8,6.8,0,0,1-.71-2.31c.94-.12,2.2-.71,2.74-.3,3.54,2.66,7,5.43,8.83,9.76C206.42,555.31,209,560.69,208.38,566.92Z"/><path class="cls-1" d="M136.9,564.43c1,.41,2.42.54,2.93,1.31a29.36,29.36,0,0,1,3.41,6.58c2.48,7.23,7.12,12.15,14.15,14.74a23.43,23.43,0,0,1,3.89,1.62c.62.37.9,1.32,1.33,2-.84.43-1.91,1.44-2.49,1.2a69.21,69.21,0,0,1-10.84-5.19,21.42,21.42,0,0,1-9.05-12.64c-.86-3-2.66-5.74-4-8.59C136.43,565.12,136.66,564.77,136.9,564.43Z"/><path class="cls-1" d="M887.72,550.87c3-1.52,5.34-2.79,7.74-3.9s3.2.16,3.5,2.7c-3.58,2.09-7.23,4.17-10.83,6.34-9.35,5.63-14.16,13.73-13,25.09.36,3.58.31,7.21.7,10.78,1.27,11.42-3.37,20-12.19,26.43-11.35,8.24-24,12.82-38,12.9a31.89,31.89,0,0,1-9.34-1.45c-5.39-1.63-8.87-5.56-9.13-11.32a43.12,43.12,0,0,1,1.25-13.85c8.24-28.17,31.27-46.57,62.59-42.75,1.22.15,2.43.37,3.67.56l7.49-8.08c-1.17-1.27-2.28-2.36-3.26-3.57-4.45-5.44-6.26-11.69-4.72-18.64a7,7,0,0,1,3.11-4.43c.86-.4,3.11,1.27,4.16,2.52A27,27,0,0,1,887.26,545C887.45,546.76,887.54,548.53,887.72,550.87Zm-16.19,15.58c.22.09-.09-.12-.43-.16-31.73-4.49-53.6,16.4-59.55,43.14a28.58,28.58,0,0,0-.26,8.57,8.14,8.14,0,0,0,6.41,7.69,34.49,34.49,0,0,0,8.83,1.21,60.36,60.36,0,0,0,34.89-12.32c6.2-4.6,10.66-10.52,10.19-19-.21-3.77-.55-7.55-.54-11.32C871.09,578.52,871.35,572.81,871.53,566.45Zm7.31-32.38c-1.71,5.61-.31,10.18,4.32,13.74C883,542.65,881.85,538.17,878.84,534.07Z"/><path class="cls-1" d="M830,586.79c1.41,4.34-1.21,9.83-5.41,13.62-1.41-3.19,1.5-4.86,2.2-7.12S829,589,830,586.79Z"/><path class="cls-1" d="M839.84,581.15c1.24-5.12,5.69-5.11,9.27-7.1C847.64,577.57,844.48,579.94,839.84,581.15Z"/><path class="cls-1" d="M700.26,833.09c5.54,1.38,11.44,2.23,16.57,4.23,23.12,9,39.28,22.42,43.35,42.9A67.21,67.21,0,0,0,773,909c6.89,8.87,5.92,17.64-2.69,25.75-3.4,3.2-6.43,6.67-10.22,9.57-7.82,6-17.48,8.65-28.53,8-4.49-.25-7.85-2.18-9.4-5.31-2.7-5.49-5-11.1-7.27-16.71a37.36,37.36,0,0,1-1.72-7c-1.89-9.81-7.72-17.65-18.39-23.55-13.35-7.38-22.36-17.21-25.5-29.82-2.38-9.51.13-18.43,6.85-26.52C681.6,836.91,689.55,833.42,700.26,833.09Zm-.63,4.72c-8.56.45-14.57,3.46-18.69,8.67-5.65,7.15-7.77,14.92-5.53,23.19,2.84,10.46,10,19.08,21.14,25.19,13.63,7.47,20.8,17.31,23.31,29.85,1.28,6.34,4.26,12.48,6.67,18.67,1.39,3.55,4.9,4.89,9.54,4.41,8-.83,15.42-2.71,20.79-7.75,3.08-2.88,6-5.83,9.11-8.73,6.6-6.26,7.14-13.08,1.85-19.74-7.61-9.6-11.6-20-13.79-31-3.67-18.3-18.29-30.25-38.68-38.57C710.5,840,704.89,839.18,699.63,837.81Z"/><path class="cls-1" d="M716.63,862.84c-.44,0,1-.35,1.81,0,9.23,4.75,15.39,11.59,21,18.74a1.58,1.58,0,0,1,.28,1.13c0,.34-.39.66-.85,1.38-5.46-2.52-7.48-7-11-10.59S720.32,866.31,716.63,862.84Z"/><path class="cls-1" d="M754.28,932.53c-7.36-5.84-12.12-13.62-22.7-17.27,2.34-2.15,4.53-1.2,6.28-.29C746,919.2,752.26,924.57,754.28,932.53Z"/><path class="cls-1" d="M746.48,940.52l-6.86-5.17C743.91,934.91,746.52,935.79,746.48,940.52Z"/><path class="cls-1" d="M329,451.08c5-1.55,8.31,1.44,10.18,6.15,1.25,3.18,3.62,5.19,5.54,7.69a60.84,60.84,0,0,1,4.64,7.69,6,6,0,0,1,.61,2.57c.17,2.88-1.56,7-3.36,7.4-2.84.66-5.66.45-7.7-2.12-2.64-3.32-5.11-6.79-7.84-10a23.54,23.54,0,0,0-4.56-3.94c-1.73-1.21-3.7-2.05-5.47-3.19-2.93-1.89-4-7.2-1.82-9.9a7.48,7.48,0,0,1,4-2.24C324.9,450.78,326.72,451.08,329,451.08Zm-1.34,11.86c.77-1.23,1.16-2.55,1.95-2.89.56-.24,1.86.65,2.47,1.36a6.62,6.62,0,0,1,1.28,2.88c1.1,5.07,4,9.08,7.18,12.89,1,1.21,2.73,1.78,4.12,2.65,3.22-4.16,1.38-7.31-.62-10.25-3.14-4.61-8.39-7.6-9.9-13.52a2.65,2.65,0,0,0-1.92-1.58,38.45,38.45,0,0,0-8.38.09c-2.71.45-3.32,3.41-1.17,5.24A37.06,37.06,0,0,0,327.7,462.94Z"/><path class="cls-1" d="M298.42,465.94c2.09.27,4.2.4,6.25.84,3.43.75,6.18,2.14,6.81,6.39.33,2.2,1.73,4.28,2.85,6.3,3.54,6.35,3.77,12.95,1.41,19.68-1.64,4.67-6.53,6.59-10.77,3.16-8.3-6.72-16-14.4-16.16-26.33C288.71,467,291.81,465.47,298.42,465.94Zm1.45,3.45c-6.53-.14-7.91,1.32-7.73,7a10.71,10.71,0,0,0,.1,1.61c1.6,9.06,7.82,14.95,13.81,21a3.76,3.76,0,0,0,1.42.69c2.85,1,4.28.39,5.3-2.52a17.44,17.44,0,0,0-.9-14.55c-1.41-2.68-3.13-5.33-3.83-8.22-.62-2.6-1.88-3.64-4.12-4.11Z"/><path class="cls-1" d="M347.23,504.58v1.62c0,6.9-.48,7.77-4.6,8.66-7.1,1.52-11.55-.25-13.66-5.58-1.93-4.86-1.13-9.89-.55-14.87a4,4,0,0,1,1-1.84c1.16-1.46,9.53-3.92,11.18-3,3.12,1.74,5.83,4,6.24,8,.24,2.31.33,4.64.48,7Zm-3.11,6.29c-.2-4.56-.19-8.69-.65-12.76-.32-2.78-3.11-5.7-5.22-5.3a11.58,11.58,0,0,0-6.31,3.13c-2.32,2.65-.84,10.28,2,13.83,1.93-2.78-1.35-7.3,3.48-10.22.18,4.69.33,8.49.49,12.63Z"/><path class="cls-1" d="M305.05,480.19c4,2.33,4.66,5.83,5.71,9,.11.3-.39,1.11-.73,1.21-.58.15-1.64.16-1.84-.18C306.52,487.47,304.26,484.85,305.05,480.19Z"/><path class="cls-1" d="M944,145.16c26.84.46,48.35,23.36,47.75,50.85-.6,27.7-22.54,49.49-49.47,49.13-26.3-.36-47.87-23.35-47.49-50.62C895.18,166.83,917.23,144.71,944,145.16Zm-.6,4.32C919.05,149.4,899.13,169.83,899,195s19.83,45.77,44.12,45.82,44.3-20.43,44.38-45.55S967.79,149.56,943.41,149.48Z"/><path class="cls-1" d="M908.2,195.2c.07-20.36,16.16-36.69,36.07-36.61,19.73.08,36,16.84,35.85,37s-16.39,36.64-36.23,36.57S908.13,215.66,908.2,195.2Zm55-25.27c-10.09-7.93-23.61-9.21-31.77-3.43,1,3.85,1.2,8,4.21,11.28,1,1.07.92,3.13,1.33,4.74a26.09,26.09,0,0,1-7.75-15.23c-12.26,5.17-22,23.74-14,41.55,6.74,15.15,24.55,23.07,38.06,17-.56-2.93-3.5-5.1-2-8.9,1.64,2.77,3.27,5.53,4.88,8.23,22.13-9,26.14-39.49,9-53.48-4.08,3-5,9.46-11.38,10.86Z"/><path class="cls-1" d="M943.41,184.56c3.07.1,4.73,2.06,4.5,5.3-.2,3-2,4.64-4.83,4.44a5,5,0,0,1-4.69-4.86C938.44,186.35,940.38,184.46,943.41,184.56Z"/><path class="cls-1" d="M967.22,201.05c-4.7-2.18-10.13-2.54-14.68-6.38C957.64,194.43,964.4,197.27,967.22,201.05Z"/><path class="cls-1" d="M932.24,211.26l5-8.74C937.79,207,936,210.08,932.24,211.26Z"/><path class="cls-1" d="M949.47,210.37c-3.15-.77-4.07-3.2-4.8-6.6C948.15,205,948.19,208.18,949.47,210.37Z"/><path class="cls-1" d="M922.5,194.72l-6.8-.37v-.88h6.76C922.47,193.89,922.48,194.31,922.5,194.72Z"/><path class="cls-1" d="M928.12,192.92l3.06-.88.3,1.08-3.05.91C928.33,193.66,928.23,193.29,928.12,192.92Z"/><path class="cls-2" d="M344.48,783.79c-.45,25.65-15,51.74-36.66,59.83a33.53,33.53,0,0,1-13.38,2.51c-24.24-.74-50-30.35-50-62.34a58,58,0,0,1,.8-9.57c5-29.75,32.12-51.67,49.23-52.77a38.09,38.09,0,0,0,13.38-2.56c13.47-5.41,21.63-18.54,20-20.49-1.47-1.8-10.65,6.65-14.07,3.88-5.51-4.46,10.11-32.86,7.58-34.33-2-1.16-10.41,17.14-18.41,16.06-11.05-1.51-14.48-39.14-17.32-38.76s2.85,39.57-6.5,43.19c-6.44,2.49-18.54-14.05-20-12.74s13.25,16.83,9.21,24.36c-3.34,6.23-17.48,3.24-17.87,5.54-.46,2.78,20.1,6.95,35.19,13.29l.66.28a54.77,54.77,0,0,0,20.44,4.17C317.07,723.76,345.07,749.78,344.48,783.79Z"/><path class="cls-3" d="M341.08,799.33l-65.92-68.88"/><path class="cls-3" d="M258,745.3Q295.21,784.15,332.4,823"/><path class="cls-3" d="M250,812.47l60-85.83"/><path class="cls-3" d="M267.67,836.47l60.51-97.7"/><path class="cls-2" d="M307.82,843.62l-61.63-74.07"/><path class="cls-2" d="M341.15,762.52l-51.29,83.14"/><path class="cls-4" d="M298,216a202.12,202.12,0,0,0-13.46,47.93c-.57,3.75,5.17,5.37,5.74,1.59a202.2,202.2,0,0,1,13.46-47.94c1.48-3.52-4.28-5.06-5.74-1.58Z"/><path class="cls-4" d="M287.06,285.19l.76,3.34a3,3,0,0,0,3.66,2.08,3.05,3.05,0,0,0,2.08-3.66l-.76-3.34a3,3,0,0,0-3.66-2.08,3.06,3.06,0,0,0-2.08,3.66Z"/><path class="cls-4" d="M286.84,308.5l1.62,4.16a3.06,3.06,0,0,0,3.67,2.07c1.4-.45,2.68-2.1,2.07-3.66l-1.62-4.15a3,3,0,0,0-3.66-2.08c-1.4.46-2.69,2.11-2.08,3.66Z"/><path class="cls-4" d="M176.51,464.38c3.66,10.09,13.27,14,23.15,15.81,12.3,2.2,23.19,5.21,33.53,12.54,3.14,2.22,6.11-2.94,3-5.14A70.67,70.67,0,0,0,209.93,476c-9.65-2-23.66-2.06-27.68-13.16-1.29-3.57-7.05-2-5.74,1.59Z"/><path class="cls-4" d="M246,509.32l2.26,7.53c1.1,3.66,6.85,2.1,5.74-1.58l-2.26-7.53c-1.1-3.66-6.85-2.1-5.74,1.58Z"/><path class="cls-4" d="M247.76,545.25V556c0,3.83,6,3.84,6,0V545.25c0-3.84-6-3.84-6,0Z"/><path class="cls-4" d="M273.14,467.2a17.77,17.77,0,0,1,12.5-19.55c3.68-1,2.11-6.79-1.59-5.74-11.69,3.31-18.5,15.08-16.65,26.88.59,3.77,6.33,2.17,5.74-1.59Z"/><path class="cls-4" d="M363.12,454.33l3.25,4.15a3,3,0,0,0,4.21,0,3.08,3.08,0,0,0,0-4.21l-3.25-4.15a3,3,0,0,0-4.21,0,3.07,3.07,0,0,0,0,4.21Z"/><path class="cls-4" d="M367.12,476.31v.83a2.28,2.28,0,0,0,.25,1.15,3.09,3.09,0,0,0,2.73,1.83,3.06,3.06,0,0,0,2.1-.87,3.13,3.13,0,0,0,.87-2.11v-.83a2.28,2.28,0,0,0-.25-1.15,2.21,2.21,0,0,0-.62-1,3.33,3.33,0,0,0-2.1-.88,3,3,0,0,0-2.11.88,3.09,3.09,0,0,0-.87,2.1Z"/><path class="cls-4" d="M131.4,635.38a68.25,68.25,0,0,0,49.45,13.18c6.42-.75,14.84-2.4,18.6,4.43,1.85,3.36,7,.36,5.14-3-6.61-12-21.18-6.85-32.06-6.82a63.65,63.65,0,0,1-38.12-12.93c-3.08-2.29-6,2.88-3,5.14Z"/><path class="cls-4" d="M206.47,788.77a142.57,142.57,0,0,0,36.8,64.71c2.7,2.72,6.91-1.48,4.21-4.21a136.44,136.44,0,0,1-35.27-62.09c-1-3.7-6.71-2.13-5.74,1.59Z"/><path class="cls-4" d="M413.07,817.82A42.71,42.71,0,0,1,440,796.1c3.7-1,2.13-6.74-1.58-5.74a48.6,48.6,0,0,0-30.44,24.46c-1.78,3.38,3.35,6.4,5.14,3Z"/><path class="cls-4" d="M467.53,786.57l7.06-1.57c3.73-.83,2.15-6.57-1.59-5.74L466,780.83c-3.74.83-2.16,6.57,1.58,5.74Z"/><path class="cls-4" d="M495.89,778.52l4.88-3.3a3,3,0,0,0,1.07-4.07,3,3,0,0,0-4.07-1.07l-4.89,3.3a3.06,3.06,0,0,0-1.07,4.07,3,3,0,0,0,4.08,1.07Z"/><path class="cls-4" d="M632.17,838.82c-9.54,11.55-6,26.88,1.62,38.43,9.64,14.57,22.35,27.67,34.47,40.18,2.67,2.76,6.87-1.46,4.2-4.21a432.45,432.45,0,0,1-29.15-33c-7.83-9.94-16.63-25.46-6.93-37.2,2.42-2.94-1.77-7.17-4.21-4.21Z"/><path class="cls-4" d="M682,931.68l1.08,3.88a3,3,0,1,0,5.74-1.58l-1.08-3.88a3,3,0,0,0-5.74,1.58Z"/><path class="cls-4" d="M691.83,949.72l8.53,10.09c2.47,2.93,6.66-1.3,4.2-4.21L696,945.52c-2.47-2.94-6.67,1.29-4.21,4.2Z"/><path class="cls-4" d="M354.2,919.08a104.72,104.72,0,0,0,59.28,29.53c25.54,3.56,51.23-1.35,76.26-6.23,3.75-.74,2.16-6.48-1.59-5.74-23.78,4.64-48.25,9.4-72.54,6.29a99,99,0,0,1-57.2-28.06c-2.73-2.7-6.94,1.51-4.21,4.21Z"/><path class="cls-4" d="M358.86,657.78A32.54,32.54,0,0,0,399.5,683.6c3.69-1,2.12-6.74-1.59-5.74-15.78,4.27-30.39-5.93-33.31-21.66-.7-3.76-6.44-2.17-5.74,1.58Z"/><path class="cls-4" d="M333,624.23l-4.34-3.31a3,3,0,0,0-4.08,1.07,3.06,3.06,0,0,0,1.07,4.07l4.34,3.31a3,3,0,0,0,4.08-1.07,3.06,3.06,0,0,0-1.07-4.07Z"/><path class="cls-4" d="M829.51,706.88l-24.65,79.81c-1.13,3.67,4.62,5.24,5.75,1.58l24.64-79.81c1.13-3.67-4.62-5.24-5.74-1.58Z"/><path class="cls-4" d="M800.44,807.42v11.07c0,3.83,5.95,3.84,5.95,0V807.42c0-3.83-5.95-3.84-5.95,0Z"/><path class="cls-4" d="M798.27,842.86v3.32a3,3,0,0,0,6,0v-3.32a3,3,0,1,0-6,0Z"/><path class="cls-4" d="M970.84,484.44a65,65,0,0,0,53.42,32.8c3.83.16,3.82-5.8,0-6A58.91,58.91,0,0,1,976,481.44c-1.9-3.33-7-.33-5.14,3Z"/><path class="cls-4" d="M808.8,545c7.38-13.27,22.7-17.32,36.08-21.93,12.38-4.26,24.86-9.94,31.61-21.79,1.9-3.33-3.25-6.34-5.14-3-7.5,13.18-22.84,17.15-36.21,21.78-12.36,4.27-24.85,10-31.48,21.94-1.87,3.35,3.27,6.35,5.14,3Z"/><path class="cls-4" d="M901.23,596.22,899.06,604c-1,3.69,4.71,5.27,5.74,1.58l2.17-7.75c1-3.7-4.71-5.28-5.74-1.59Z"/><path class="cls-4" d="M893.33,625.92l-8.66,7.75c-2.86,2.56,1.36,6.76,4.21,4.21l8.66-7.75c2.86-2.56-1.36-6.76-4.21-4.21Z"/><path class="cls-4" d="M890.17,132.82A101.16,101.16,0,0,1,949.8,123c3.74.54,5.36-5.2,1.58-5.74a108.25,108.25,0,0,0-64.22,10.38c-3.42,1.72-.41,6.86,3,5.15Z"/><path class="cls-4" d="M140.82,265.88l21.84,24.18c2.58,2.85,6.78-1.37,4.21-4.2L145,261.67c-2.57-2.85-6.77,1.37-4.21,4.21Z"/><path class="cls-4" d="M439,134.9c-3.42,15.83-.79,31.77-1.5,47.76-.63,14.3-5.25,31.32-19.88,37.28-3.5,1.43-2,7.19,1.58,5.74,35.48-14.45,19.41-60.8,25.54-89.2.81-3.73-4.93-5.33-5.74-1.58Z"/><path class="cls-4" d="M394.74,253l-1.11,7.75a3.07,3.07,0,0,0,2.08,3.66c1.4.38,3.43-.48,3.66-2.08l1.11-7.75a3.08,3.08,0,0,0-2.08-3.66c-1.39-.38-3.43.48-3.66,2.08Z"/><path class="cls-4" d="M385.3,287.91l3.25,12.18c1,3.69,6.73,2.13,5.74-1.59L391,286.33c-1-3.7-6.74-2.13-5.74,1.58Z"/><path class="cls-4" d="M542.18,379.75A67,67,0,0,1,579,333c3.47-1.62.45-6.76-3-5.14a72.6,72.6,0,0,0-39.57,50.26c-.8,3.74,4.94,5.34,5.74,1.59Z"/><path class="cls-4" d="M595.93,305.12l-7.5-18.86c-1.4-3.52-7.16-2-5.74,1.58l7.5,18.86c1.4,3.52,7.16,2,5.74-1.58Z"/><path class="cls-4" d="M580,254.28l-10.88-8.79c-3-2.38-7.19,1.8-4.21,4.21l10.88,8.79c3,2.38,7.2-1.81,4.21-4.21Z"/><path class="cls-4" d="M678.8,387.76c8.85-6.67,19.18.06,26.11,6.21s13.16,12,21.91,15a46.29,46.29,0,0,0,44.82-8.55c2.92-2.48-1.31-6.68-4.21-4.21C753.79,407.83,733,408.71,718.58,398c-11.56-8.62-26.85-27.38-42.78-15.36-3,2.28-.06,7.45,3,5.14Z"/><path class="cls-4" d="M805,389.35l17.18-15.66c2.84-2.59-1.38-6.79-4.21-4.21l-17.18,15.66c-2.84,2.59,1.38,6.79,4.21,4.21Z"/><path class="cls-4" d="M839.84,352l3.25-7.75c.62-1.49-.67-3.28-2.08-3.67a3.06,3.06,0,0,0-3.66,2.08l-3.25,7.75c-.62,1.49.67,3.28,2.08,3.67a3,3,0,0,0,3.66-2.08Z"/><path class="cls-4" d="M596.66,129.79c9-17.52,29.91-28,49.33-23.24,21.88,5.33,37.25,28.61,61.88,23.32,3.74-.81,2.16-6.55-1.59-5.74-13.95,3-26.28-5.85-37.38-13-9.29-6-18.89-11-30.13-11.6a51.2,51.2,0,0,0-47.25,27.25c-1.74,3.4,3.39,6.42,5.14,3Z"/><path class="cls-4" d="M752.53,133.78h3.25a3,3,0,0,0,0-6h-3.25a3,3,0,1,0,0,6Z"/><path class="cls-4" d="M785.34,153.38l5.43,1a3.05,3.05,0,0,0,3.66-2.08,3,3,0,0,0-2.08-3.66l-5.42-1a3.07,3.07,0,0,0-3.67,2.08,3,3,0,0,0,2.08,3.67Z"/><path class="cls-4" d="M800.44,172.89V174a3.07,3.07,0,0,0,.87,2.11,3,3,0,0,0,4.21,0,3.11,3.11,0,0,0,.87-2.11v-1.1a3,3,0,0,0-3-3,3,3,0,0,0-2.1.87,3.07,3.07,0,0,0-.87,2.11Z"/><path class="cls-4" d="M916.9,820.64l38.92-52.09c2.29-3.07-2.87-6-5.14-3l-38.92,52.08c-2.3,3.07,2.87,6,5.14,3Z"/><path class="cls-4" d="M973.09,732.77l10.83-3.32c3.65-1.12,2.09-6.87-1.58-5.74L971.51,727c-3.65,1.12-2.09,6.87,1.58,5.74Z"/><path class="cls-4" d="M78.06,490.36c3.83,0,3.84-5.95,0-5.95s-3.84,5.95,0,5.95Z"/><path class="cls-4" d="M95.38,505.86c3.83,0,3.84-5.95,0-5.95s-3.84,5.95,0,5.95Z"/><path class="cls-4" d="M103,531.33c3.83,0,3.84-6,0-6s-3.84,6,0,6Z"/><path class="cls-4" d="M126.78,251.17c3.83,0,3.83-6,0-6s-3.84,6,0,6Z"/><path class="cls-4" d="M176.58,307.64c3.83,0,3.83-5.95,0-5.95s-3.84,5.95,0,5.95Z"/><path class="cls-4" d="M191.73,334.22c3.83,0,3.84-6,0-6s-3.83,6,0,6Z"/><path class="cls-4" d="M450.48,107.21c3.83,0,3.84-6,0-6s-3.84,6,0,6Z"/><path class="cls-4" d="M518.72,933.05l13-1.57c3.76-.45,3.8-6.41,0-6l-13,1.57c-3.76.45-3.8,6.41,0,5.95Z"/><path class="cls-4" d="M318.94,889.57c3.83,0,3.84-6,0-6s-3.84,6,0,6Z"/><path class="cls-4" d="M679.45,803.2c3.83,0,3.84-6,0-6s-3.83,6,0,6Z"/><path class="cls-4" d="M703.81,794.89c3.83,0,3.84-5.95,0-5.95s-3.83,5.95,0,5.95Z"/></svg>